# xmcd
#
# Track frame offsets:
#	182
#	13140
#	23777
#	37075
#	46347
#	57887
#	71837
#	82735
#	93305
#	110645
#	121355
#	131612
#	143275
#	154425
#	163182
#	175187
#	190207
#	200200
#	212635
#	222537
#
# Disc length: 3162 seconds
#
# Revision: 2
# Processed by: cddbd v1.4PL0 Copyright (c) Steve Scherf et al.
# Submitted via: audiograbber 1.82.02
#
DISCID=280c5814
DTITLE=Various Artist - Country Gold [CD2]
DYEAR=1900
DGENRE=Country
TTITLE0=Faron Young - It's Four In The Morning
TTITLE1=Waylon Jennings - Sally Was A Good Old Girl
TTITLE2=Ronnie Dove - One Kiss For Old Times Sake
TTITLE3=Frankie Laine - Rawhide
TTITLE4=The Kendalls - Heaven's Just A Sin Away
TTITLE5=Lynn Anderson - Two Doors Down
TTITLE6=Johnny Paycheck - Take This Job And Shove It
TTITLE7=Tex Williams - Battle Of New Orleans
TTITLE8=Ferlin Husky - Convoy
TTITLE9=Patsy Cline - Honkey Tonk Merry Go Round
TTITLE10=Patsy Cline - Three Cigarettes In An Ashtray
TTITLE11=Willie Nelson - Touch Me
TTITLE12=Hank Locklin - Let Me Be The One
TTITLE13=Roger Miller - England Swings
TTITLE14=Billy Jo Spears - Look What They've Done To My Song
TTITLE15=Anne Murray - There Goes My Everything
TTITLE16=Conway Twitty - Where I Stand
TTITLE17=Jerry Fuller and Wynn Stewart - Wishfull Thinking
TTITLE18=Merel Haggart - Mama Tried
TTITLE19=Lee Greenwood - God Bless The USA
EXTD=
EXTT0=
EXTT1=
EXTT2=
EXTT3=
EXTT4=
EXTT5=
EXTT6=
EXTT7=
EXTT8=
EXTT9=
EXTT10=
EXTT11=
EXTT12=
EXTT13=
EXTT14=
EXTT15=
EXTT16=
EXTT17=
EXTT18=
EXTT19=
PLAYORDER=
